<mxfile host="app.diagrams.net" agent="Mozilla/5.0 (Windows NT 10.0; Win64; x64) AppleWebKit/537.36 (KHTML, like Gecko) Chrome/134.0.0.0 Safari/537.36" version="26.1.3">
  <diagram name="Page-1" id="aGvXo_SHHAiXoc3EZFG6">
    <mxGraphModel dx="1500" dy="796" grid="1" gridSize="10" guides="1" tooltips="1" connect="1" arrows="1" fold="1" page="1" pageScale="1" pageWidth="850" pageHeight="1100" math="0" shadow="0">
      <root>
        <mxCell id="0" />
        <mxCell id="1" parent="0" />
        <mxCell id="NvCjOWEeXrFJ-WHDRKrW-2" value="" style="ellipse;whiteSpace=wrap;html=1;" vertex="1" parent="1">
          <mxGeometry x="370" y="100" width="110" height="60" as="geometry" />
        </mxCell>
        <mxCell id="NvCjOWEeXrFJ-WHDRKrW-3" value="&lt;div&gt;&lt;font style=&quot;font-size: 21px;&quot;&gt;Start&lt;/font&gt;&lt;/div&gt;" style="text;html=1;align=center;verticalAlign=middle;whiteSpace=wrap;rounded=0;" vertex="1" parent="1">
          <mxGeometry x="378" y="107.5" width="95" height="45" as="geometry" />
        </mxCell>
        <mxCell id="NvCjOWEeXrFJ-WHDRKrW-4" value="" style="endArrow=classic;html=1;rounded=0;" edge="1" parent="1">
          <mxGeometry width="50" height="50" relative="1" as="geometry">
            <mxPoint x="425" y="160" as="sourcePoint" />
            <mxPoint x="425" y="210" as="targetPoint" />
          </mxGeometry>
        </mxCell>
        <mxCell id="NvCjOWEeXrFJ-WHDRKrW-5" value="" style="rhombus;whiteSpace=wrap;html=1;" vertex="1" parent="1">
          <mxGeometry x="370" y="210" width="110" height="80" as="geometry" />
        </mxCell>
        <mxCell id="NvCjOWEeXrFJ-WHDRKrW-6" value="&lt;font style=&quot;font-size: 15px;&quot;&gt;Is lamp working&lt;/font&gt;" style="text;html=1;align=center;verticalAlign=middle;whiteSpace=wrap;rounded=0;" vertex="1" parent="1">
          <mxGeometry x="395.5" y="234" width="60" height="30" as="geometry" />
        </mxCell>
        <mxCell id="NvCjOWEeXrFJ-WHDRKrW-11" value="" style="endArrow=none;html=1;rounded=0;entryX=0;entryY=0.5;entryDx=0;entryDy=0;" edge="1" parent="1" target="NvCjOWEeXrFJ-WHDRKrW-5">
          <mxGeometry width="50" height="50" relative="1" as="geometry">
            <mxPoint x="240" y="250" as="sourcePoint" />
            <mxPoint x="360" y="220" as="targetPoint" />
          </mxGeometry>
        </mxCell>
        <mxCell id="NvCjOWEeXrFJ-WHDRKrW-12" value="Yes" style="text;strokeColor=none;fillColor=none;align=left;verticalAlign=middle;spacingLeft=4;spacingRight=4;overflow=hidden;points=[[0,0.5],[1,0.5]];portConstraint=eastwest;rotatable=0;whiteSpace=wrap;html=1;" vertex="1" parent="1">
          <mxGeometry x="320" y="220" width="80" height="30" as="geometry" />
        </mxCell>
        <mxCell id="NvCjOWEeXrFJ-WHDRKrW-13" value="" style="endArrow=none;html=1;rounded=0;" edge="1" parent="1">
          <mxGeometry width="50" height="50" relative="1" as="geometry">
            <mxPoint x="240" y="250" as="sourcePoint" />
            <mxPoint x="240" y="670" as="targetPoint" />
          </mxGeometry>
        </mxCell>
        <mxCell id="NvCjOWEeXrFJ-WHDRKrW-14" value="" style="endArrow=classic;html=1;rounded=0;exitX=0.5;exitY=1;exitDx=0;exitDy=0;" edge="1" parent="1" source="NvCjOWEeXrFJ-WHDRKrW-5">
          <mxGeometry width="50" height="50" relative="1" as="geometry">
            <mxPoint x="380" y="270" as="sourcePoint" />
            <mxPoint x="425" y="350" as="targetPoint" />
          </mxGeometry>
        </mxCell>
        <mxCell id="NvCjOWEeXrFJ-WHDRKrW-15" value="" style="rhombus;whiteSpace=wrap;html=1;" vertex="1" parent="1">
          <mxGeometry x="370" y="350" width="110" height="80" as="geometry" />
        </mxCell>
        <mxCell id="NvCjOWEeXrFJ-WHDRKrW-16" value="&lt;span style=&quot;font-size: 15px;&quot;&gt;Lamp plugged-in&lt;/span&gt;" style="text;html=1;align=center;verticalAlign=middle;whiteSpace=wrap;rounded=0;" vertex="1" parent="1">
          <mxGeometry x="389.5" y="374" width="74.5" height="30" as="geometry" />
        </mxCell>
        <mxCell id="NvCjOWEeXrFJ-WHDRKrW-17" value="" style="endArrow=classic;html=1;rounded=0;" edge="1" parent="1">
          <mxGeometry width="50" height="50" relative="1" as="geometry">
            <mxPoint x="480" y="390" as="sourcePoint" />
            <mxPoint x="550" y="390" as="targetPoint" />
          </mxGeometry>
        </mxCell>
        <mxCell id="NvCjOWEeXrFJ-WHDRKrW-19" value="No" style="text;html=1;align=center;verticalAlign=middle;whiteSpace=wrap;rounded=0;" vertex="1" parent="1">
          <mxGeometry x="473" y="360" width="60" height="30" as="geometry" />
        </mxCell>
        <mxCell id="NvCjOWEeXrFJ-WHDRKrW-21" value="&lt;font style=&quot;font-size: 16px;&quot;&gt;Plug-in lamp&lt;/font&gt;" style="rounded=0;whiteSpace=wrap;html=1;" vertex="1" parent="1">
          <mxGeometry x="550" y="360" width="120" height="60" as="geometry" />
        </mxCell>
        <mxCell id="NvCjOWEeXrFJ-WHDRKrW-22" value="" style="endArrow=none;html=1;rounded=0;" edge="1" parent="1">
          <mxGeometry width="50" height="50" relative="1" as="geometry">
            <mxPoint x="609.5" y="420" as="sourcePoint" />
            <mxPoint x="610" y="670" as="targetPoint" />
          </mxGeometry>
        </mxCell>
        <mxCell id="NvCjOWEeXrFJ-WHDRKrW-23" value="" style="endArrow=classic;html=1;rounded=0;exitX=0.5;exitY=1;exitDx=0;exitDy=0;" edge="1" parent="1" source="NvCjOWEeXrFJ-WHDRKrW-15">
          <mxGeometry width="50" height="50" relative="1" as="geometry">
            <mxPoint x="440" y="540" as="sourcePoint" />
            <mxPoint x="425" y="500" as="targetPoint" />
          </mxGeometry>
        </mxCell>
        <mxCell id="NvCjOWEeXrFJ-WHDRKrW-24" value="&lt;font style=&quot;font-size: 16px;&quot;&gt;Repair lamp&lt;/font&gt;" style="rounded=0;whiteSpace=wrap;html=1;" vertex="1" parent="1">
          <mxGeometry x="366.75" y="500" width="120" height="60" as="geometry" />
        </mxCell>
        <mxCell id="NvCjOWEeXrFJ-WHDRKrW-25" value="" style="endArrow=classic;html=1;rounded=0;exitX=0.5;exitY=1;exitDx=0;exitDy=0;" edge="1" parent="1" source="NvCjOWEeXrFJ-WHDRKrW-24">
          <mxGeometry width="50" height="50" relative="1" as="geometry">
            <mxPoint x="440" y="600" as="sourcePoint" />
            <mxPoint x="427" y="630" as="targetPoint" />
          </mxGeometry>
        </mxCell>
        <mxCell id="NvCjOWEeXrFJ-WHDRKrW-26" value="&lt;font style=&quot;font-size: 16px;&quot;&gt;End&lt;/font&gt;" style="ellipse;whiteSpace=wrap;html=1;" vertex="1" parent="1">
          <mxGeometry x="366.75" y="630" width="120" height="80" as="geometry" />
        </mxCell>
        <mxCell id="NvCjOWEeXrFJ-WHDRKrW-28" value="" style="endArrow=classic;html=1;rounded=0;entryX=1;entryY=0.5;entryDx=0;entryDy=0;" edge="1" parent="1" target="NvCjOWEeXrFJ-WHDRKrW-26">
          <mxGeometry width="50" height="50" relative="1" as="geometry">
            <mxPoint x="610" y="670" as="sourcePoint" />
            <mxPoint x="583" y="660" as="targetPoint" />
          </mxGeometry>
        </mxCell>
        <mxCell id="NvCjOWEeXrFJ-WHDRKrW-29" value="" style="endArrow=classic;html=1;rounded=0;entryX=0;entryY=0.5;entryDx=0;entryDy=0;" edge="1" parent="1" target="NvCjOWEeXrFJ-WHDRKrW-26">
          <mxGeometry width="50" height="50" relative="1" as="geometry">
            <mxPoint x="240" y="670" as="sourcePoint" />
            <mxPoint x="330" y="645" as="targetPoint" />
          </mxGeometry>
        </mxCell>
      </root>
    </mxGraphModel>
  </diagram>
</mxfile>
